<?xml version="1.0" standalone="no"?>
<!DOCTYPE svg PUBLIC "-//W3C//DTD SVG 20010904//EN"
 "http://www.w3.org/TR/2001/REC-SVG-20010904/DTD/svg10.dtd">
<svg version="1.0" xmlns="http://www.w3.org/2000/svg"
 width="442.000000pt" height="445.000000pt" viewBox="0 0 442.000000 445.000000"
 preserveAspectRatio="xMidYMid meet">

<g transform="translate(0.000000,445.000000) scale(0.100000,-0.100000)"
fill="#000000" stroke="none">
<path d="M1615 4092 c-16 -11 -66 -56 -110 -101 l-80 -81 180 -180 180 -180
88 88 c99 98 121 131 112 171 -3 17 -55 76 -138 159 -147 147 -174 161 -232
124z"/>
<path d="M2552 4050 c-117 -17 -222 -97 -276 -210 l-31 -65 0 -635 c0 -580 2
-639 18 -685 35 -100 134 -198 230 -227 32 -10 194 -13 677 -13 l635 0 67 32
c117 55 188 151 208 281 7 46 10 269 8 653 -3 583 -3 584 -26 641 -30 74 -108
160 -175 192 -29 14 -81 30 -117 36 -75 12 -1136 12 -1218 0z"/>
<path d="M792 3277 l-522 -522 0 -178 0 -177 183 0 182 0 524 524 524 524
-177 176 c-97 97 -180 176 -184 176 -4 0 -242 -235 -530 -523z"/>
<path d="M443 2020 c-97 -23 -198 -102 -243 -190 -38 -75 -41 -133 -38 -760
l3 -605 29 -63 c37 -81 123 -162 202 -191 55 -21 66 -21 702 -19 l647 3 58 30
c65 32 135 103 166 168 11 23 25 71 30 107 14 84 14 1121 1 1213 -16 110 -66
192 -153 250 -99 68 -93 67 -766 66 -333 -1 -620 -4 -638 -9z"/>
<path d="M2768 1948 c-13 -11 -17 -36 -20 -133 -6 -197 -33 -225 -220 -225
-105 0 -120 -2 -138 -20 -20 -20 -20 -33 -20 -655 0 -698 -2 -678 60 -710 26
-14 104 -15 610 -13 l580 3 27 28 28 27 3 820 2 819 -29 33 -29 33 -419 3
c-328 2 -422 0 -435 -10z m692 -533 c0 -13 -46 -15 -355 -15 -309 0 -355 2
-355 15 0 13 46 15 355 15 309 0 355 -2 355 -15z m-2 -247 c-7 -19 -889 -19
-895 0 -4 9 90 12 447 12 357 0 451 -3 448 -12z m0 -280 c-7 -19 -889 -19
-895 0 -4 9 90 12 447 12 357 0 451 -3 448 -12z m0 -280 c-7 -19 -889 -19
-895 0 -4 9 90 12 447 12 357 0 451 -3 448 -12z"/>
<path d="M2550 1775 l-155 -155 119 0 c126 0 158 9 186 54 16 24 28 256 14
256 -5 0 -79 -70 -164 -155z"/>
<path d="M3710 1212 c0 -270 4 -492 8 -492 4 0 105 98 224 218 219 221 235
242 219 297 -7 26 -36 58 -275 295 l-176 175 0 -493z"/>
</g>
</svg>
